<?xml version="1.0" encoding="utf-8"?>
<!-- Generator: Adobe Illustrator 24.0.1, SVG Export Plug-In . SVG Version: 6.00 Build 0)  -->
<svg version="1.1" id="Слой_1" xmlns="http://www.w3.org/2000/svg" xmlns:xlink="http://www.w3.org/1999/xlink" x="0px" y="0px"
	 width="86.4px" height="160.3px" viewBox="0 0 86.4 160.3" style="enable-background:new 0 0 86.4 160.3;" xml:space="preserve">
<style type="text/css">
	.st0{fill-rule:evenodd;clip-rule:evenodd;}
	.st1{fill:#F7D070;}
</style>
<g>
	<path class="st0" d="M55,0v0.4h-1.7l0,1.8L54.8,3l1,0v0.4l-0.1,0l15.2,7l-0.6,1.2L52.7,3.4l-5.6,0l0,12.3l6.2,11.9l-1.2,0.6l-5-9.7
		l0,1.3h-0.4v-1.7l0.2,0L46,16.4h-1.9l0,0.9h-0.4V3.4H3.5v28.4h13.1v6h14v-7.8h13.1v-1.7h3.5l0,9.5l11.3,0v0.4h-1.7v2.6h1.7v0.4h-55
		v87.9h12.4l0-0.1l13.8-5.3l0.5,1.2l-10.8,4.1h1.6v0.4h-1.7l0-0.4l-0.9,0.3l0,0.1h-0.1l-0.7,0.3v2.3l0.9,0v0.4H2.6v25.9h81.2v-25.9
		H62.8v-1.1h-0.7v-0.3H41.7v0.3H41v1.1h-9.6l0,0l-1.7,0v-0.4h1.7l0-2.6h-1.7v-0.4H41v1.1h0.7v0.4h20.4v-0.4h0.7v-1.1h20.1V41.4H69.8
		l0-0.2l-10.7,5.6l-0.6-1.1l8.7-4.6l0-0.1l0.3,0l2.3-1.2l0-1.8h13.1V14.7h-8.7V3.4h-4.4V3h1.7V0h6.1v11.2h8.7v121.5h-0.9v27.6H0.9
		v-27.6H0V0H55z M50.2,144c0.1,0,0.2,0,0.3,0c0.1,0,0.2,0,0.3,0.1v0.6h0c-0.1,0-0.1-0.1-0.3-0.1c-0.1,0-0.2,0-0.4,0
		c-0.4,0-0.8,0.1-1,0.4c-0.3,0.3-0.4,0.7-0.5,1.3c0.2-0.1,0.3-0.2,0.5-0.3c0.2-0.1,0.4-0.1,0.6-0.1c0.2,0,0.4,0,0.5,0.1
		c0.1,0,0.3,0.1,0.5,0.2c0.2,0.1,0.3,0.3,0.4,0.5c0.1,0.2,0.1,0.5,0.1,0.8c0,0.3,0,0.5-0.1,0.7c-0.1,0.2-0.2,0.4-0.3,0.5
		c-0.2,0.2-0.3,0.3-0.5,0.4s-0.4,0.1-0.6,0.1c-0.2,0-0.4,0-0.6-0.1c-0.2-0.1-0.4-0.2-0.5-0.3c-0.2-0.2-0.3-0.4-0.4-0.7
		s-0.1-0.7-0.1-1.1c0-0.4,0-0.8,0.1-1.2c0.1-0.4,0.2-0.7,0.4-0.9c0.2-0.3,0.4-0.5,0.7-0.6C49.5,144.1,49.9,144,50.2,144z M46.4,144
		c0.1,0,0.2,0,0.3,0c0.1,0,0.2,0,0.3,0.1v0.6h0c-0.1,0-0.2-0.1-0.3-0.1s-0.2,0-0.4,0c-0.4,0-0.8,0.1-1,0.4c-0.3,0.3-0.4,0.7-0.5,1.3
		c0.2-0.1,0.3-0.2,0.5-0.3c0.2-0.1,0.4-0.1,0.6-0.1c0.2,0,0.4,0,0.5,0.1c0.1,0,0.3,0.1,0.5,0.2c0.2,0.1,0.3,0.3,0.4,0.5
		c0.1,0.2,0.1,0.5,0.1,0.8c0,0.3,0,0.5-0.1,0.7c-0.1,0.2-0.2,0.4-0.3,0.5c-0.2,0.2-0.3,0.3-0.5,0.4c-0.2,0.1-0.4,0.1-0.6,0.1
		c-0.2,0-0.4,0-0.6-0.1s-0.4-0.2-0.5-0.3c-0.2-0.2-0.3-0.4-0.4-0.7c-0.1-0.3-0.1-0.7-0.1-1.1c0-0.4,0-0.8,0.1-1.2
		c0.1-0.4,0.2-0.7,0.4-0.9c0.2-0.3,0.4-0.5,0.7-0.6C45.7,144.1,46.1,144,46.4,144z M41,144.1v2.8h0.6v0.5H41v1.7h-0.7v-1.7h-2.2
		v-0.7l2.3-2.6H41z M43.2,148.2v1h-0.8v-1H43.2z M45.8,146.5c-0.2,0-0.3,0-0.5,0.1c-0.1,0-0.3,0.1-0.4,0.2c0,0.1,0,0.1,0,0.1
		c0,0,0,0.1,0,0.2c0,0.3,0,0.6,0.1,0.8c0.1,0.2,0.2,0.4,0.3,0.5c0.1,0.1,0.2,0.2,0.3,0.2c0.1,0,0.2,0.1,0.3,0.1
		c0.3,0,0.5-0.1,0.7-0.3c0.2-0.2,0.3-0.5,0.3-0.9c0-0.2,0-0.4-0.1-0.5c-0.1-0.1-0.1-0.3-0.3-0.4c-0.1-0.1-0.2-0.1-0.3-0.1
		C46,146.5,45.9,146.5,45.8,146.5z M49.6,146.5c-0.2,0-0.3,0-0.5,0.1s-0.3,0.1-0.4,0.2c0,0.1,0,0.1,0,0.1c0,0,0,0.1,0,0.2
		c0,0.3,0,0.6,0.1,0.8c0.1,0.2,0.2,0.4,0.3,0.5c0.1,0.1,0.2,0.2,0.3,0.2c0.1,0,0.2,0.1,0.3,0.1c0.3,0,0.5-0.1,0.7-0.3
		c0.2-0.2,0.3-0.5,0.3-0.9c0-0.2,0-0.4-0.1-0.5c-0.1-0.1-0.1-0.3-0.3-0.4c-0.1-0.1-0.2-0.1-0.3-0.1
		C49.8,146.5,49.7,146.5,49.6,146.5z M40.3,144.9l-1.7,2h1.7V144.9z M26.2,132.3v0.4h-1.7v-0.4H26.2z M20.9,132.3v0.4h-1.7v-0.4
		H20.9z M28.8,132.3v0.4h-1.7v-0.4H28.8z M23.6,132.3v0.4h-1.7v-0.4H23.6z M23.6,129.3v0.4h-1.7v-0.4H23.6z M26.2,129.3v0.4h-1.7
		v-0.4H26.2z M28.8,129.3v0.4h-1.7v-0.4H28.8z M61.7,119c0.5,0,0.8,0.1,1.1,0.4c0.3,0.2,0.4,0.5,0.4,0.9c0,0.2-0.1,0.4-0.2,0.7
		c-0.1,0.2-0.3,0.4-0.6,0.5v0c0.3,0.1,0.5,0.3,0.7,0.5c0.2,0.2,0.2,0.4,0.2,0.8c0,0.4-0.2,0.8-0.5,1.1c-0.3,0.3-0.7,0.4-1.2,0.4
		c-0.3,0-0.5,0-0.7-0.1c-0.2-0.1-0.4-0.2-0.5-0.3c-0.1-0.1-0.3-0.3-0.3-0.5c-0.1-0.2-0.1-0.4-0.1-0.6c0-0.3,0.1-0.5,0.2-0.8
		c0.1-0.2,0.4-0.4,0.6-0.5v0c-0.3-0.1-0.4-0.3-0.6-0.5c-0.1-0.2-0.2-0.4-0.2-0.6c0-0.4,0.1-0.7,0.4-0.9
		C60.9,119.1,61.2,119,61.7,119z M67.6,119c0.6,0,1,0.2,1.2,0.6c0.3,0.4,0.4,1.1,0.4,2c0,0.9-0.1,1.6-0.4,2
		c-0.3,0.4-0.7,0.6-1.2,0.6c-0.6,0-1-0.2-1.2-0.6c-0.3-0.4-0.4-1.1-0.4-2c0-0.9,0.1-1.6,0.4-2C66.6,119.2,67,119,67.6,119z
		 M71.4,119c0.6,0,1,0.2,1.2,0.6c0.3,0.4,0.4,1.1,0.4,2c0,0.9-0.1,1.6-0.4,2c-0.3,0.4-0.7,0.6-1.2,0.6c-0.6,0-1-0.2-1.2-0.6
		c-0.3-0.4-0.4-1.1-0.4-2c0-0.9,0.1-1.6,0.4-2C70.4,119.2,70.8,119,71.4,119z M65,123.2v1h-0.8v-1H65z M58.3,119.1v4.5h0.9v0.5h-2.5
		v-0.5h0.9v-3.4h-0.9v-0.5c0.3,0,0.6,0,0.8-0.1c0.2-0.1,0.3-0.3,0.3-0.6H58.3z M61.3,121.6c-0.2,0.1-0.3,0.3-0.4,0.5
		c-0.1,0.2-0.1,0.4-0.1,0.6c0,0.3,0.1,0.6,0.3,0.8c0.2,0.2,0.4,0.3,0.7,0.3c0.3,0,0.5-0.1,0.7-0.3c0.2-0.2,0.3-0.4,0.3-0.7
		c0-0.2,0-0.4-0.1-0.5c-0.1-0.1-0.2-0.2-0.5-0.4c-0.1,0-0.2-0.1-0.3-0.1C61.6,121.7,61.4,121.7,61.3,121.6z M67.6,119.6
		c-0.2,0-0.3,0-0.5,0.1c-0.1,0.1-0.2,0.2-0.3,0.4c-0.1,0.2-0.1,0.4-0.1,0.6c0,0.3,0,0.6,0,0.9c0,0.4,0,0.6,0,0.9
		c0,0.2,0.1,0.4,0.1,0.6c0.1,0.2,0.2,0.3,0.3,0.4c0.1,0.1,0.3,0.1,0.5,0.1c0.2,0,0.3,0,0.5-0.1c0.1-0.1,0.2-0.2,0.3-0.4
		c0.1-0.2,0.1-0.4,0.1-0.6c0-0.3,0-0.6,0-0.9c0-0.3,0-0.6,0-0.9c0-0.3-0.1-0.5-0.1-0.6c-0.1-0.2-0.2-0.3-0.3-0.4
		C67.9,119.6,67.8,119.6,67.6,119.6z M71.4,119.6c-0.2,0-0.3,0-0.5,0.1c-0.1,0.1-0.2,0.2-0.3,0.4c-0.1,0.2-0.1,0.4-0.1,0.6
		c0,0.3,0,0.6,0,0.9c0,0.4,0,0.6,0,0.9c0,0.2,0.1,0.4,0.1,0.6c0.1,0.2,0.2,0.3,0.3,0.4c0.1,0.1,0.3,0.1,0.5,0.1c0.2,0,0.3,0,0.5-0.1
		c0.1-0.1,0.2-0.2,0.3-0.4c0.1-0.2,0.1-0.4,0.1-0.6c0-0.3,0-0.6,0-0.9c0-0.3,0-0.6,0-0.9c0-0.3-0.1-0.5-0.1-0.6
		c-0.1-0.2-0.2-0.3-0.3-0.4C71.7,119.6,71.6,119.6,71.4,119.6z M61.7,119.5c-0.2,0-0.5,0.1-0.6,0.2c-0.2,0.1-0.2,0.3-0.2,0.5
		c0,0.2,0,0.3,0.1,0.4c0.1,0.1,0.2,0.2,0.4,0.3c0.1,0,0.2,0.1,0.3,0.2c0.1,0.1,0.3,0.1,0.4,0.2c0.2-0.2,0.3-0.3,0.4-0.5
		c0.1-0.2,0.1-0.3,0.1-0.5c0-0.2-0.1-0.4-0.2-0.6C62.1,119.6,61.9,119.5,61.7,119.5z M63.7,40.9v0.4H62v-0.4H63.7z M61.1,40.9v0.4
		h-1.7v-0.4H61.1z M66.3,40.9v0.4h-1.7v-0.4H66.3z M61.1,37.9v0.4h-1.7v-0.4H61.1z M68.9,37.9v0.4h-1.7v-0.4H68.9z M66.3,37.9v0.4
		h-1.7v-0.4H66.3z M63.7,37.9v0.4H62v-0.4H63.7z M14.8,33.6H3.5v4.3h11.3V33.6z M43.6,31.9H32.3v6l11.3,0L43.6,31.9z M47.1,25.9v1.7
		h-0.4v-1.7H47.1z M44.1,25.9v1.7h-0.4v-1.7H44.1z M68.9,21.6c0.6,0,1,0.2,1.2,0.6c0.3,0.4,0.4,1.1,0.4,2c0,0.9-0.1,1.6-0.4,2
		c-0.3,0.4-0.7,0.6-1.2,0.6c-0.6,0-1-0.2-1.2-0.6c-0.3-0.4-0.4-1.1-0.4-2c0-0.9,0.1-1.6,0.4-2C67.9,21.8,68.4,21.6,68.9,21.6z
		 M65.1,21.6c0.6,0,1,0.2,1.2,0.6c0.3,0.4,0.4,1.1,0.4,2c0,0.9-0.1,1.6-0.4,2c-0.3,0.4-0.7,0.6-1.2,0.6c-0.6,0-1-0.2-1.2-0.6
		c-0.3-0.4-0.4-1.1-0.4-2c0-0.9,0.1-1.6,0.4-2C64.1,21.8,64.5,21.6,65.1,21.6z M59.1,21.5c0.2,0,0.4,0,0.6,0.1
		c0.2,0,0.3,0.1,0.5,0.2c0.2,0.1,0.3,0.2,0.3,0.4c0.1,0.2,0.1,0.3,0.1,0.5c0,0.3-0.1,0.5-0.3,0.7c-0.2,0.2-0.4,0.3-0.7,0.4v0
		c0.1,0,0.2,0.1,0.3,0.1c0.1,0,0.2,0.1,0.3,0.2c0.1,0.1,0.2,0.2,0.3,0.4c0.1,0.2,0.1,0.3,0.1,0.6c0,0.2,0,0.4-0.1,0.6
		c-0.1,0.2-0.2,0.4-0.3,0.5c-0.1,0.2-0.3,0.3-0.5,0.3c-0.2,0.1-0.4,0.1-0.7,0.1c-0.3,0-0.5,0-0.8-0.1s-0.5-0.1-0.6-0.2v-0.7h0
		c0.1,0.1,0.3,0.2,0.6,0.3c0.2,0.1,0.5,0.1,0.7,0.1c0.1,0,0.3,0,0.4-0.1c0.1,0,0.3-0.1,0.3-0.2c0.1-0.1,0.2-0.2,0.2-0.3
		c0-0.1,0.1-0.3,0.1-0.5s0-0.3-0.1-0.4c-0.1-0.1-0.1-0.2-0.2-0.3c-0.1-0.1-0.2-0.1-0.3-0.1c-0.1,0-0.3,0-0.4,0h-0.3v-0.6h0.2
		c0.3,0,0.6-0.1,0.7-0.2s0.3-0.4,0.3-0.6c0-0.1,0-0.2-0.1-0.3c0-0.1-0.1-0.2-0.2-0.2c-0.1-0.1-0.2-0.1-0.3-0.1c-0.1,0-0.2,0-0.3,0
		c-0.1,0-0.2,0-0.4,0c-0.1,0-0.2,0.1-0.4,0.1c-0.1,0-0.2,0.1-0.3,0.1c-0.1,0-0.2,0.1-0.2,0.1h0v-0.7c0.1-0.1,0.3-0.1,0.6-0.2
		C58.6,21.6,58.8,21.5,59.1,21.5z M62.5,25.7v1h-0.8v-1H62.5z M68.9,22.1c-0.2,0-0.3,0-0.5,0.1c-0.1,0.1-0.2,0.2-0.3,0.4
		C68.1,22.8,68,23,68,23.3c0,0.3,0,0.6,0,0.9c0,0.4,0,0.6,0,0.9c0,0.2,0.1,0.4,0.1,0.6c0.1,0.2,0.2,0.3,0.3,0.4
		c0.1,0.1,0.3,0.1,0.5,0.1c0.2,0,0.3,0,0.5-0.1c0.1-0.1,0.2-0.2,0.3-0.4c0.1-0.2,0.1-0.4,0.1-0.6c0-0.3,0-0.6,0-0.9
		c0-0.3,0-0.6,0-0.9c0-0.3-0.1-0.5-0.1-0.6c-0.1-0.2-0.2-0.3-0.3-0.4C69.3,22.2,69.1,22.1,68.9,22.1z M65.1,22.1
		c-0.2,0-0.3,0-0.5,0.1c-0.1,0.1-0.2,0.2-0.3,0.4c-0.1,0.2-0.1,0.4-0.1,0.6c0,0.3,0,0.6,0,0.9c0,0.4,0,0.6,0,0.9
		c0,0.2,0.1,0.4,0.1,0.6c0.1,0.2,0.2,0.3,0.3,0.4c0.1,0.1,0.3,0.1,0.5,0.1c0.2,0,0.3,0,0.5-0.1c0.1-0.1,0.2-0.2,0.3-0.4
		c0.1-0.2,0.1-0.4,0.1-0.6c0-0.3,0-0.6,0-0.9c0-0.3,0-0.6,0-0.9c0-0.3-0.1-0.5-0.1-0.6c-0.1-0.2-0.2-0.3-0.3-0.4
		C65.4,22.2,65.3,22.1,65.1,22.1z M47.1,23.4v1.7h-0.4v-1.7H47.1z M44.1,23.3V25h-0.4v-1.7H44.1z M35.6,19c0.6,0,1,0.2,1.2,0.6
		c0.3,0.4,0.4,1.1,0.4,2c0,0.9-0.1,1.6-0.4,2c-0.3,0.4-0.7,0.6-1.2,0.6c-0.6,0-1-0.2-1.2-0.6c-0.3-0.4-0.4-1.1-0.4-2
		c0-0.9,0.1-1.6,0.4-2C34.7,19.2,35.1,19,35.6,19z M31.8,19c0.6,0,1,0.2,1.2,0.6c0.3,0.4,0.4,1.1,0.4,2c0,0.9-0.1,1.6-0.4,2
		c-0.3,0.4-0.7,0.6-1.2,0.6c-0.6,0-1-0.2-1.2-0.6c-0.3-0.4-0.4-1.1-0.4-2c0-0.9,0.1-1.6,0.4-2C30.8,19.2,31.3,19,31.8,19z M25.8,19
		c0.2,0,0.4,0,0.6,0.1c0.2,0,0.3,0.1,0.5,0.2c0.2,0.1,0.3,0.2,0.3,0.4c0.1,0.2,0.1,0.3,0.1,0.5c0,0.3-0.1,0.5-0.3,0.7
		c-0.2,0.2-0.4,0.3-0.7,0.4v0c0.1,0,0.2,0.1,0.3,0.1c0.1,0,0.2,0.1,0.3,0.2c0.1,0.1,0.2,0.2,0.3,0.4c0.1,0.2,0.1,0.3,0.1,0.6
		c0,0.2,0,0.4-0.1,0.6c-0.1,0.2-0.2,0.4-0.3,0.5c-0.1,0.2-0.3,0.3-0.5,0.3c-0.2,0.1-0.4,0.1-0.7,0.1c-0.3,0-0.5,0-0.8-0.1
		s-0.5-0.1-0.6-0.2v-0.7h0c0.1,0.1,0.3,0.2,0.6,0.3c0.2,0.1,0.5,0.1,0.7,0.1c0.1,0,0.3,0,0.4-0.1c0.1,0,0.3-0.1,0.3-0.2
		c0.1-0.1,0.2-0.2,0.2-0.3c0-0.1,0.1-0.3,0.1-0.5s0-0.3-0.1-0.4c-0.1-0.1-0.1-0.2-0.2-0.3c-0.1-0.1-0.2-0.1-0.3-0.1
		c-0.1,0-0.3,0-0.4,0h-0.3v-0.6h0.2c0.3,0,0.6-0.1,0.7-0.2c0.2-0.1,0.3-0.4,0.3-0.6c0-0.1,0-0.2-0.1-0.3c-0.1-0.1-0.1-0.2-0.2-0.2
		c-0.1-0.1-0.2-0.1-0.3-0.1c-0.1,0-0.2,0-0.3,0c-0.1,0-0.2,0-0.4,0c-0.1,0-0.2,0.1-0.4,0.1c-0.1,0-0.2,0.1-0.3,0.1
		c-0.1,0-0.2,0.1-0.2,0.1h0v-0.7c0.1-0.1,0.3-0.1,0.6-0.2C25.3,19,25.5,19,25.8,19z M29.3,23.2v1h-0.8v-1H29.3z M35.6,19.6
		c-0.2,0-0.3,0-0.5,0.1c-0.1,0.1-0.2,0.2-0.3,0.4c-0.1,0.2-0.1,0.4-0.1,0.6c0,0.3,0,0.6,0,0.9c0,0.4,0,0.6,0,0.9
		c0,0.2,0.1,0.4,0.1,0.6c0.1,0.2,0.2,0.3,0.3,0.4c0.1,0.1,0.3,0.1,0.5,0.1c0.2,0,0.3,0,0.5-0.1c0.1-0.1,0.2-0.2,0.3-0.4
		c0.1-0.2,0.1-0.4,0.1-0.6c0-0.3,0-0.6,0-0.9c0-0.3,0-0.6,0-0.9c0-0.3-0.1-0.5-0.1-0.6c-0.1-0.2-0.2-0.3-0.3-0.4
		C36,19.6,35.8,19.6,35.6,19.6z M31.8,19.6c-0.2,0-0.3,0-0.5,0.1c-0.1,0.1-0.2,0.2-0.3,0.4c-0.1,0.2-0.1,0.4-0.1,0.6s0,0.6,0,0.9
		c0,0.4,0,0.6,0,0.9c0,0.2,0.1,0.4,0.1,0.6c0.1,0.2,0.2,0.3,0.3,0.4c0.1,0.1,0.3,0.1,0.5,0.1c0.2,0,0.3,0,0.5-0.1
		c0.1-0.1,0.2-0.2,0.3-0.4c0.1-0.2,0.1-0.4,0.1-0.6c0-0.3,0-0.6,0-0.9c0-0.3,0-0.6,0-0.9c0-0.3-0.1-0.5-0.1-0.6
		c-0.1-0.2-0.2-0.3-0.3-0.4C32.2,19.6,32,19.6,31.8,19.6z M47.1,20.8v1.7h-0.4v-1.7H47.1z M44.1,20.7v1.7h-0.4v-1.7H44.1z
		 M44.1,18.1v1.7h-0.4v-1.7H44.1z M58.5,3v0.4h-1.7V3H58.5z M61.1,3v0.4h-1.7V3H61.1z M63.7,3v0.4H62V3H63.7z M66.3,3v0.4h-1.7V3
		H66.3z M68.9,3v0.4h-1.7V3H68.9z M57.6,0v0.4h-1.7V0H57.6z M60.2,0v0.4h-1.7V0H60.2z M62.8,0v0.4h-1.7V0H62.8z M65.4,0v0.4h-1.7V0
		H65.4z M68.1,0v0.4h-1.7V0H68.1z M70.7,0v0.4h-1.7V0H70.7z"/>
	<path class="st1" d="M45.4,41.4h-14v13.8h14V41.4z"/>
	<path class="st0" d="M33.2,43.1h4.4v4.3h-4.4V43.1z M39.3,43.1h4.4v4.3h-4.4V43.1z M39.3,49.1h4.4v4.3h-4.4V49.1z M33.2,49.1h4.4
		v4.3h-4.4V49.1z"/>
	<path class="st1" d="M17.5,3.4h-14v13.8h14V3.4z"/>
	<path class="st0" d="M15.7,5.2H5.2v10.3h10.5V5.2z M4.4,4.3h12.2v12.1H4.4V4.3z M10.5,11.2c-0.5,0-0.9-0.4-0.9-0.9
		c0-0.5,0.4-0.9,0.9-0.9c0.5,0,0.9,0.4,0.9,0.9C11.3,10.8,11,11.2,10.5,11.2z"/>
	<path class="st1" d="M31.4,3.4h-8.7v6.9h8.7V3.4z"/>
	<path d="M27.1,7.9c0.6,0,1-0.4,1-1c0-0.5-0.4-1-1-1c-0.6,0-1,0.4-1,1C26.1,7.4,26.5,7.9,27.1,7.9z"/>
	<path d="M30.5,4.3h-7v1h7V4.3z"/>
	<path class="st0" d="M23.6,7.8l3.5,0.9l3.5-0.9v0.9l-3.5,0.9l-3.5-0.9V7.8z"/>
	<path d="M24.6,5.2h-1v3.4h1V5.2z"/>
	<path d="M30.7,5.2h-1v3.4h1V5.2z"/>
	<path class="st1" d="M12.2,41.4H3.5v6.9h8.7V41.4z"/>
	<path d="M7.9,45.8c0.6,0,1-0.4,1-1c0-0.5-0.4-1-1-1s-1,0.4-1,1C6.9,45.4,7.3,45.8,7.9,45.8z"/>
	<path d="M11.3,42.2h-7v1h7V42.2z"/>
	<path class="st0" d="M4.4,45.7l3.5,0.9l3.5-0.9v0.9l-3.5,0.9l-3.5-0.9V45.7z"/>
	<path d="M5.4,43.1h-1v3.4h1V43.1z"/>
	<path d="M11.5,43.1h-1v3.4h1V43.1z"/>
	<path class="st1" d="M14.8,20.7H3.5v6.9h11.3V20.7z"/>
	<path class="st0" d="M11.4,21.5c1.4,0,2.6,1.2,2.6,2.6c0,1.4-1.2,2.6-2.6,2.6H6.1c-1.4,0-2.6-1.2-2.6-2.6c0-1.4,1.2-2.6,2.6-2.6
		H11.4z M11.5,22.4H5.4c-1,0-1.7,0.8-1.7,1.7c0,1,0.8,1.7,1.7,1.7h6.1c1,0,1.7-0.8,1.7-1.7C13.2,23.2,12.5,22.4,11.5,22.4z"/>
	<path d="M11.3,25.1c0.6,0,1-0.4,1-1c0-0.5-0.4-1-1-1c-0.6,0-1,0.4-1,1C10.3,24.7,10.8,25.1,11.3,25.1z"/>
	<path d="M7,20.7H3.5v6.9H7V20.7z"/>
	<path d="M39,87.1h-4.2v-0.9c0.4-0.3,0.7-0.5,1-0.8s0.5-0.5,0.7-0.7c0.3-0.3,0.5-0.5,0.6-0.8c0.1-0.2,0.2-0.4,0.2-0.7
		c0-0.3-0.1-0.5-0.2-0.6c-0.2-0.1-0.4-0.2-0.7-0.2c-0.1,0-0.3,0-0.4,0.1c-0.1,0-0.3,0.1-0.4,0.1c-0.1,0.1-0.2,0.1-0.3,0.2l-0.2,0.1
		H35v-1.2c0.2-0.1,0.4-0.2,0.8-0.2c0.3-0.1,0.7-0.1,1-0.1c0.7,0,1.2,0.1,1.5,0.4c0.3,0.3,0.5,0.7,0.5,1.3c0,0.3-0.1,0.7-0.2,1
		c-0.2,0.3-0.4,0.7-0.8,1c-0.2,0.2-0.5,0.4-0.7,0.6s-0.4,0.3-0.5,0.4H39V87.1z M44.1,85.7h-0.8v1.3H42v-1.3h-2.5v-1.1l2.5-3.3h1.4
		v3.3h0.8V85.7z M42,84.7v-1.9l-1.4,1.9H42z M46.2,87.1h-1.4v-1.5h1.4V87.1z M51.4,84.2c0,0.5,0,0.9-0.1,1.3
		c-0.1,0.4-0.2,0.7-0.4,0.9c-0.2,0.2-0.4,0.4-0.7,0.6s-0.6,0.2-1,0.2c-0.4,0-0.7-0.1-1-0.2s-0.5-0.3-0.7-0.6
		c-0.2-0.2-0.3-0.6-0.4-0.9c-0.1-0.4-0.1-0.8-0.1-1.3c0-0.5,0-0.9,0.1-1.3c0.1-0.4,0.2-0.7,0.4-0.9c0.2-0.3,0.4-0.4,0.7-0.6
		c0.3-0.1,0.6-0.2,1-0.2c0.4,0,0.8,0.1,1,0.2c0.3,0.1,0.5,0.3,0.7,0.6c0.2,0.2,0.3,0.6,0.4,0.9C51.4,83.3,51.4,83.8,51.4,84.2z
		 M50,84.2c0-0.7-0.1-1.2-0.2-1.5c-0.1-0.3-0.3-0.4-0.6-0.4c-0.3,0-0.5,0.1-0.6,0.4c-0.1,0.3-0.2,0.8-0.2,1.5c0,0.7,0.1,1.2,0.2,1.5
		c0.1,0.3,0.3,0.4,0.6,0.4c0.3,0,0.5-0.1,0.6-0.4C49.9,85.4,50,84.9,50,84.2z M56.4,84.2c0,0.5,0,0.9-0.1,1.3
		c-0.1,0.4-0.2,0.7-0.4,0.9c-0.2,0.2-0.4,0.4-0.7,0.6c-0.3,0.1-0.6,0.2-1,0.2c-0.4,0-0.7-0.1-1-0.2c-0.3-0.1-0.5-0.3-0.7-0.6
		c-0.2-0.2-0.3-0.6-0.4-0.9c-0.1-0.4-0.1-0.8-0.1-1.3c0-0.5,0-0.9,0.1-1.3c0.1-0.4,0.2-0.7,0.4-0.9c0.2-0.3,0.4-0.4,0.7-0.6
		c0.3-0.1,0.6-0.2,1-0.2c0.4,0,0.8,0.1,1,0.2c0.3,0.1,0.5,0.3,0.7,0.6c0.2,0.2,0.3,0.6,0.4,0.9C56.4,83.3,56.4,83.8,56.4,84.2z
		 M55,84.2c0-0.7-0.1-1.2-0.2-1.5c-0.1-0.3-0.3-0.4-0.6-0.4c-0.3,0-0.5,0.1-0.6,0.4c-0.1,0.3-0.2,0.8-0.2,1.5c0,0.7,0.1,1.2,0.2,1.5
		c0.1,0.3,0.3,0.4,0.6,0.4c0.3,0,0.5-0.1,0.6-0.4C54.9,85.4,55,84.9,55,84.2z"/>
	<path class="st1" d="M53.2,79.3H32.3V81h20.9V79.3z"/>
</g>
</svg>
