<?xml version="1.0" encoding="utf-8"?>
<!-- Generator: Adobe Illustrator 24.0.1, SVG Export Plug-In . SVG Version: 6.00 Build 0)  -->
<svg version="1.1" id="Слой_1" xmlns="http://www.w3.org/2000/svg" xmlns:xlink="http://www.w3.org/1999/xlink" x="0px" y="0px"
	 width="160.3px" height="86.4px" viewBox="0 0 160.3 86.4" style="enable-background:new 0 0 160.3 86.4;" xml:space="preserve">
<style type="text/css">
	.st0{fill-rule:evenodd;clip-rule:evenodd;}
	.st1{fill:#F7D070;}
</style>
<g>
	<path class="st0" d="M160.3,55h-0.4v-1.7l-1.8,0l-0.7,1.6l0,1h-0.4l0-0.1l-7,15.2l-1.2-0.6l8.2-17.8l0-5.6l-12.3,0l-11.9,6.2
		l-0.6-1.2l9.7-5l-1.3,0v-0.4h1.7l0,0.2l1.8-0.9v-1.9l-0.9,0v-0.4h13.8V3.5h-28.4v13.1h-6v14h7.8v13.1h1.7v3.5l-9.5,0l0,11.3H122
		v-1.7h-2.6v1.7H119v-55H31v12.4l0.1,0l5.3,13.8l-1.2,0.5L31,19.3v1.6h-0.4v-1.7l0.4,0l-0.3-0.9l-0.1,0v-0.1l-0.3-0.7H28l0,0.9h-0.4
		V2.6H1.7v81.2h25.9V62.8h1.1v-0.7H29V41.7h-0.3V41h-1.1v-9.6l0,0l0-1.7H28v1.7l2.6,0v-1.7H31V41h-1.1v0.7h-0.4v20.4h0.4v0.7H31
		v20.1H119V69.8l0.2,0l-5.6-10.7l1.1-0.6l4.6,8.7l0.1,0l0,0.3l1.2,2.3l1.8,0v13.1h23.3v-8.7h11.2v-4.4h0.4v1.7h3v6.1h-11.2v8.7H27.6
		v-0.9H0V0.9h27.6V0h132.7V55z M16.3,50.2c0,0.1,0,0.2,0,0.3c0,0.1,0,0.2-0.1,0.3h-0.6v0c0-0.1,0.1-0.1,0.1-0.3c0-0.1,0-0.2,0-0.4
		c0-0.4-0.1-0.8-0.4-1c-0.3-0.3-0.7-0.4-1.3-0.5c0.1,0.2,0.2,0.3,0.3,0.5c0.1,0.2,0.1,0.4,0.1,0.6c0,0.2,0,0.4-0.1,0.5
		c0,0.1-0.1,0.3-0.2,0.5c-0.1,0.2-0.3,0.3-0.5,0.4c-0.2,0.1-0.5,0.1-0.8,0.1c-0.3,0-0.5,0-0.7-0.1c-0.2-0.1-0.4-0.2-0.5-0.3
		c-0.2-0.2-0.3-0.3-0.4-0.5s-0.1-0.4-0.1-0.6c0-0.2,0-0.4,0.1-0.6c0.1-0.2,0.2-0.4,0.3-0.5c0.2-0.2,0.4-0.3,0.7-0.4S13,48,13.4,48
		c0.4,0,0.8,0,1.2,0.1c0.4,0.1,0.7,0.2,0.9,0.4c0.3,0.2,0.5,0.4,0.6,0.7C16.2,49.5,16.3,49.9,16.3,50.2z M16.3,46.4
		c0,0.1,0,0.2,0,0.3c0,0.1,0,0.2-0.1,0.3h-0.6v0c0-0.1,0.1-0.2,0.1-0.3s0-0.2,0-0.4c0-0.4-0.1-0.8-0.4-1c-0.3-0.3-0.7-0.4-1.3-0.5
		c0.1,0.2,0.2,0.3,0.3,0.5c0.1,0.2,0.1,0.4,0.1,0.6c0,0.2,0,0.4-0.1,0.5c0,0.1-0.1,0.3-0.2,0.5c-0.1,0.2-0.3,0.3-0.5,0.4
		c-0.2,0.1-0.5,0.1-0.8,0.1c-0.3,0-0.5,0-0.7-0.1c-0.2-0.1-0.4-0.2-0.5-0.3c-0.2-0.2-0.3-0.3-0.4-0.5c-0.1-0.2-0.1-0.4-0.1-0.6
		c0-0.2,0-0.4,0.1-0.6s0.2-0.4,0.3-0.5c0.2-0.2,0.4-0.3,0.7-0.4c0.3-0.1,0.7-0.1,1.1-0.1c0.4,0,0.8,0,1.2,0.1
		c0.4,0.1,0.7,0.2,0.9,0.4c0.3,0.2,0.5,0.4,0.6,0.7C16.2,45.7,16.3,46.1,16.3,46.4z M16.2,41h-2.8v0.6h-0.5V41h-1.7v-0.7h1.7v-2.2
		h0.7l2.6,2.3V41z M12.2,43.2h-1v-0.8h1V43.2z M13.9,45.8c0-0.2,0-0.3-0.1-0.5c0-0.1-0.1-0.3-0.2-0.4c-0.1,0-0.1,0-0.1,0
		c0,0-0.1,0-0.2,0c-0.3,0-0.6,0-0.8,0.1c-0.2,0.1-0.4,0.2-0.5,0.3c-0.1,0.1-0.2,0.2-0.2,0.3c0,0.1-0.1,0.2-0.1,0.3
		c0,0.3,0.1,0.5,0.3,0.7c0.2,0.2,0.5,0.3,0.9,0.3c0.2,0,0.4,0,0.5-0.1c0.1-0.1,0.3-0.1,0.4-0.3c0.1-0.1,0.1-0.2,0.1-0.3
		C13.8,46,13.9,45.9,13.9,45.8z M13.9,49.6c0-0.2,0-0.3-0.1-0.5s-0.1-0.3-0.2-0.4c-0.1,0-0.1,0-0.1,0c0,0-0.1,0-0.2,0
		c-0.3,0-0.6,0-0.8,0.1c-0.2,0.1-0.4,0.2-0.5,0.3c-0.1,0.1-0.2,0.2-0.2,0.3c0,0.1-0.1,0.2-0.1,0.3c0,0.3,0.1,0.5,0.3,0.7
		c0.2,0.2,0.5,0.3,0.9,0.3c0.2,0,0.4,0,0.5-0.1c0.1-0.1,0.3-0.1,0.4-0.3c0.1-0.1,0.1-0.2,0.1-0.3C13.8,49.8,13.9,49.7,13.9,49.6z
		 M15.4,40.3l-2-1.7v1.7H15.4z M28,26.2h-0.4v-1.7H28V26.2z M28,20.9h-0.4v-1.7H28V20.9z M28,28.8h-0.4v-1.7H28V28.8z M28,23.6h-0.4
		v-1.7H28V23.6z M31,23.6h-0.4v-1.7H31V23.6z M31,26.2h-0.4v-1.7H31V26.2z M31,28.8h-0.4v-1.7H31V28.8z M41.3,61.7
		c0,0.5-0.1,0.8-0.4,1.1c-0.2,0.3-0.5,0.4-0.9,0.4c-0.2,0-0.4-0.1-0.7-0.2c-0.2-0.1-0.4-0.3-0.5-0.6h0c-0.1,0.3-0.3,0.5-0.5,0.7
		c-0.2,0.2-0.4,0.2-0.8,0.2c-0.4,0-0.8-0.2-1.1-0.5c-0.3-0.3-0.4-0.7-0.4-1.2c0-0.3,0-0.5,0.1-0.7c0.1-0.2,0.2-0.4,0.3-0.5
		c0.1-0.1,0.3-0.3,0.5-0.3c0.2-0.1,0.4-0.1,0.6-0.1c0.3,0,0.5,0.1,0.8,0.2c0.2,0.1,0.4,0.4,0.5,0.6h0c0.1-0.3,0.3-0.4,0.5-0.6
		c0.2-0.1,0.4-0.2,0.6-0.2c0.4,0,0.7,0.1,0.9,0.4C41.2,60.9,41.3,61.2,41.3,61.7z M41.3,67.6c0,0.6-0.2,1-0.6,1.2
		c-0.4,0.3-1.1,0.4-2,0.4c-0.9,0-1.6-0.1-2-0.4c-0.4-0.3-0.6-0.7-0.6-1.2c0-0.6,0.2-1,0.6-1.2c0.4-0.3,1.1-0.4,2-0.4
		c0.9,0,1.6,0.1,2,0.4C41.1,66.6,41.3,67,41.3,67.6z M41.3,71.4c0,0.6-0.2,1-0.6,1.2c-0.4,0.3-1.1,0.4-2,0.4c-0.9,0-1.6-0.1-2-0.4
		c-0.4-0.3-0.6-0.7-0.6-1.2c0-0.6,0.2-1,0.6-1.2c0.4-0.3,1.1-0.4,2-0.4c0.9,0,1.6,0.1,2,0.4C41.1,70.4,41.3,70.8,41.3,71.4z
		 M37.2,65h-1v-0.8h1V65z M41.2,58.3h-4.5v0.9h-0.5v-2.5h0.5v0.9h3.4v-0.9h0.5c0,0.3,0,0.6,0.1,0.8c0.1,0.2,0.3,0.3,0.6,0.3V58.3z
		 M38.7,61.3c-0.1-0.2-0.3-0.3-0.5-0.4c-0.2-0.1-0.4-0.1-0.6-0.1c-0.3,0-0.6,0.1-0.8,0.3c-0.2,0.2-0.3,0.4-0.3,0.7
		c0,0.3,0.1,0.5,0.3,0.7c0.2,0.2,0.4,0.3,0.7,0.3c0.2,0,0.4,0,0.5-0.1c0.1-0.1,0.2-0.2,0.4-0.5c0-0.1,0.1-0.2,0.1-0.3
		C38.6,61.6,38.6,61.4,38.7,61.3z M40.8,67.6c0-0.2,0-0.3-0.1-0.5c-0.1-0.1-0.2-0.2-0.4-0.3c-0.2-0.1-0.4-0.1-0.6-0.1
		c-0.3,0-0.6,0-0.9,0c-0.4,0-0.6,0-0.9,0c-0.2,0-0.4,0.1-0.6,0.1c-0.2,0.1-0.3,0.2-0.4,0.3c-0.1,0.1-0.1,0.3-0.1,0.5
		c0,0.2,0,0.3,0.1,0.5c0.1,0.1,0.2,0.2,0.4,0.3c0.2,0.1,0.4,0.1,0.6,0.1c0.3,0,0.6,0,0.9,0c0.3,0,0.6,0,0.9,0c0.3,0,0.5-0.1,0.6-0.1
		c0.2-0.1,0.3-0.2,0.4-0.3C40.7,67.9,40.8,67.8,40.8,67.6z M40.8,71.4c0-0.2,0-0.3-0.1-0.5c-0.1-0.1-0.2-0.2-0.4-0.3
		c-0.2-0.1-0.4-0.1-0.6-0.1c-0.3,0-0.6,0-0.9,0c-0.4,0-0.6,0-0.9,0c-0.2,0-0.4,0.1-0.6,0.1c-0.2,0.1-0.3,0.2-0.4,0.3
		c-0.1,0.1-0.1,0.3-0.1,0.5c0,0.2,0,0.3,0.1,0.5c0.1,0.1,0.2,0.2,0.4,0.3c0.2,0.1,0.4,0.1,0.6,0.1c0.3,0,0.6,0,0.9,0
		c0.3,0,0.6,0,0.9,0c0.3,0,0.5-0.1,0.6-0.1c0.2-0.1,0.3-0.2,0.4-0.3C40.7,71.7,40.8,71.6,40.8,71.4z M40.8,61.7
		c0-0.2-0.1-0.5-0.2-0.6c-0.1-0.2-0.3-0.2-0.5-0.2c-0.2,0-0.3,0-0.4,0.1c-0.1,0.1-0.2,0.2-0.3,0.4c0,0.1-0.1,0.2-0.2,0.3
		c-0.1,0.1-0.1,0.3-0.2,0.4c0.2,0.2,0.3,0.3,0.5,0.4c0.2,0.1,0.3,0.1,0.5,0.1c0.2,0,0.4-0.1,0.6-0.2C40.8,62.1,40.8,61.9,40.8,61.7z
		 M119.4,63.7H119V62h0.4V63.7z M119.4,61.1H119v-1.7h0.4V61.1z M119.4,66.3H119v-1.7h0.4V66.3z M122.4,61.1H122v-1.7h0.4V61.1z
		 M122.4,68.9H122v-1.7h0.4V68.9z M122.4,66.3H122v-1.7h0.4V66.3z M122.4,63.7H122V62h0.4V63.7z M126.7,14.8V3.5h-4.3v11.3H126.7z
		 M128.4,43.6V32.3h-6l0,11.3L128.4,43.6z M134.4,47.1h-1.7v-0.4h1.7V47.1z M134.5,44.1h-1.7v-0.4h1.7V44.1z M138.8,68.9
		c0,0.6-0.2,1-0.6,1.2c-0.4,0.3-1.1,0.4-2,0.4c-0.9,0-1.6-0.1-2-0.4c-0.4-0.3-0.6-0.7-0.6-1.2c0-0.6,0.2-1,0.6-1.2
		c0.4-0.3,1.1-0.4,2-0.4c0.9,0,1.6,0.1,2,0.4C138.6,67.9,138.8,68.4,138.8,68.9z M138.8,65.1c0,0.6-0.2,1-0.6,1.2
		c-0.4,0.3-1.1,0.4-2,0.4c-0.9,0-1.6-0.1-2-0.4c-0.4-0.3-0.6-0.7-0.6-1.2c0-0.6,0.2-1,0.6-1.2c0.4-0.3,1.1-0.4,2-0.4
		c0.9,0,1.6,0.1,2,0.4C138.6,64.1,138.8,64.5,138.8,65.1z M138.8,59.1c0,0.2,0,0.4-0.1,0.6c0,0.2-0.1,0.3-0.2,0.5
		c-0.1,0.2-0.2,0.3-0.4,0.3c-0.2,0.1-0.3,0.1-0.5,0.1c-0.3,0-0.5-0.1-0.7-0.3c-0.2-0.2-0.3-0.4-0.4-0.7h0c0,0.1-0.1,0.2-0.1,0.3
		c0,0.1-0.1,0.2-0.2,0.3c-0.1,0.1-0.2,0.2-0.4,0.3c-0.2,0.1-0.3,0.1-0.6,0.1c-0.2,0-0.4,0-0.6-0.1c-0.2-0.1-0.4-0.2-0.5-0.3
		c-0.2-0.1-0.3-0.3-0.3-0.5c-0.1-0.2-0.1-0.4-0.1-0.7c0-0.3,0-0.5,0.1-0.8c0.1-0.3,0.1-0.5,0.2-0.6h0.7v0c-0.1,0.1-0.2,0.3-0.3,0.6
		c-0.1,0.2-0.1,0.5-0.1,0.7c0,0.1,0,0.3,0.1,0.4c0,0.1,0.1,0.3,0.2,0.3c0.1,0.1,0.2,0.2,0.3,0.2c0.1,0,0.3,0.1,0.5,0.1
		c0.2,0,0.3,0,0.4-0.1c0.1-0.1,0.2-0.1,0.3-0.2c0.1-0.1,0.1-0.2,0.1-0.3c0-0.1,0-0.3,0-0.4v-0.3h0.6v0.2c0,0.3,0.1,0.6,0.2,0.7
		c0.1,0.2,0.4,0.3,0.6,0.3c0.1,0,0.2,0,0.3-0.1c0.1,0,0.2-0.1,0.2-0.2c0.1-0.1,0.1-0.2,0.1-0.3c0-0.1,0-0.2,0-0.3c0-0.1,0-0.2,0-0.4
		c0-0.1-0.1-0.2-0.1-0.4c0-0.1-0.1-0.2-0.1-0.3c0-0.1-0.1-0.2-0.1-0.2v0h0.7c0.1,0.1,0.1,0.3,0.2,0.6
		C138.7,58.6,138.8,58.8,138.8,59.1z M134.6,62.5h-1v-0.8h1V62.5z M138.2,68.9c0-0.2,0-0.3-0.1-0.5c-0.1-0.1-0.2-0.2-0.4-0.3
		c-0.2-0.1-0.4-0.1-0.6-0.1c-0.3,0-0.6,0-0.9,0c-0.4,0-0.6,0-0.9,0c-0.2,0-0.4,0.1-0.6,0.1c-0.2,0.1-0.3,0.2-0.4,0.3
		c-0.1,0.1-0.1,0.3-0.1,0.5c0,0.2,0,0.3,0.1,0.5c0.1,0.1,0.2,0.2,0.4,0.3c0.2,0.1,0.4,0.1,0.6,0.1c0.3,0,0.6,0,0.9,0
		c0.3,0,0.6,0,0.9,0c0.3,0,0.5-0.1,0.6-0.1c0.2-0.1,0.3-0.2,0.4-0.3C138.2,69.3,138.2,69.1,138.2,68.9z M138.2,65.1
		c0-0.2,0-0.3-0.1-0.5c-0.1-0.1-0.2-0.2-0.4-0.3c-0.2-0.1-0.4-0.1-0.6-0.1c-0.3,0-0.6,0-0.9,0c-0.4,0-0.6,0-0.9,0
		c-0.2,0-0.4,0.1-0.6,0.1c-0.2,0.1-0.3,0.2-0.4,0.3c-0.1,0.1-0.1,0.3-0.1,0.5c0,0.2,0,0.3,0.1,0.5c0.1,0.1,0.2,0.2,0.4,0.3
		c0.2,0.1,0.4,0.1,0.6,0.1c0.3,0,0.6,0,0.9,0c0.3,0,0.6,0,0.9,0c0.3,0,0.5-0.1,0.6-0.1c0.2-0.1,0.3-0.2,0.4-0.3
		C138.2,65.4,138.2,65.3,138.2,65.1z M137,47.1h-1.7v-0.4h1.7V47.1z M137.1,44.1h-1.7v-0.4h1.7V44.1z M141.3,35.6
		c0,0.6-0.2,1-0.6,1.2c-0.4,0.3-1.1,0.4-2,0.4c-0.9,0-1.6-0.1-2-0.4c-0.4-0.3-0.6-0.7-0.6-1.2c0-0.6,0.2-1,0.6-1.2
		c0.4-0.3,1.1-0.4,2-0.4c0.9,0,1.6,0.1,2,0.4C141.1,34.7,141.3,35.1,141.3,35.6z M141.3,31.8c0,0.6-0.2,1-0.6,1.2
		c-0.4,0.3-1.1,0.4-2,0.4c-0.9,0-1.6-0.1-2-0.4c-0.4-0.3-0.6-0.7-0.6-1.2c0-0.6,0.2-1,0.6-1.2c0.4-0.3,1.1-0.4,2-0.4
		c0.9,0,1.6,0.1,2,0.4C141.1,30.8,141.3,31.3,141.3,31.8z M141.3,25.8c0,0.2,0,0.4-0.1,0.6c0,0.2-0.1,0.3-0.2,0.5
		c-0.1,0.2-0.2,0.3-0.4,0.3c-0.2,0.1-0.3,0.1-0.5,0.1c-0.3,0-0.5-0.1-0.7-0.3c-0.2-0.2-0.3-0.4-0.4-0.7h0c0,0.1-0.1,0.2-0.1,0.3
		c0,0.1-0.1,0.2-0.2,0.3c-0.1,0.1-0.2,0.2-0.4,0.3c-0.2,0.1-0.3,0.1-0.6,0.1c-0.2,0-0.4,0-0.6-0.1c-0.2-0.1-0.4-0.2-0.5-0.3
		c-0.2-0.1-0.3-0.3-0.3-0.5c-0.1-0.2-0.1-0.4-0.1-0.7c0-0.3,0-0.5,0.1-0.8c0.1-0.3,0.1-0.5,0.2-0.6h0.7v0c-0.1,0.1-0.2,0.3-0.3,0.6
		s-0.1,0.5-0.1,0.7c0,0.1,0,0.3,0.1,0.4c0,0.1,0.1,0.3,0.2,0.3c0.1,0.1,0.2,0.2,0.3,0.2c0.1,0,0.3,0.1,0.5,0.1c0.2,0,0.3,0,0.4-0.1
		c0.1-0.1,0.2-0.1,0.3-0.2c0.1-0.1,0.1-0.2,0.1-0.3c0-0.1,0-0.3,0-0.4v-0.3h0.6v0.2c0,0.3,0.1,0.6,0.2,0.7c0.1,0.2,0.4,0.3,0.6,0.3
		c0.1,0,0.2,0,0.3-0.1c0.1-0.1,0.2-0.1,0.2-0.2c0.1-0.1,0.1-0.2,0.1-0.3c0-0.1,0-0.2,0-0.3c0-0.1,0-0.2,0-0.4c0-0.1-0.1-0.2-0.1-0.4
		c0-0.1-0.1-0.2-0.1-0.3c0-0.1-0.1-0.2-0.1-0.2v0h0.7c0.1,0.1,0.1,0.3,0.2,0.6C141.3,25.3,141.3,25.5,141.3,25.8z M137.1,29.3h-1
		v-0.8h1V29.3z M140.7,35.6c0-0.2,0-0.3-0.1-0.5c-0.1-0.1-0.2-0.2-0.4-0.3c-0.2-0.1-0.4-0.1-0.6-0.1c-0.3,0-0.6,0-0.9,0
		c-0.4,0-0.6,0-0.9,0s-0.4,0.1-0.6,0.1c-0.2,0.1-0.3,0.2-0.4,0.3c-0.1,0.1-0.1,0.3-0.1,0.5c0,0.2,0,0.3,0.1,0.5
		c0.1,0.1,0.2,0.2,0.4,0.3c0.2,0.1,0.4,0.1,0.6,0.1c0.3,0,0.6,0,0.9,0c0.3,0,0.6,0,0.9,0c0.3,0,0.5-0.1,0.6-0.1
		c0.2-0.1,0.3-0.2,0.4-0.3C140.7,36,140.7,35.8,140.7,35.6z M140.7,31.8c0-0.2,0-0.3-0.1-0.5c-0.1-0.1-0.2-0.2-0.4-0.3
		c-0.2-0.1-0.4-0.1-0.6-0.1c-0.3,0-0.6,0-0.9,0c-0.4,0-0.6,0-0.9,0c-0.2,0-0.4,0.1-0.6,0.1c-0.2,0.1-0.3,0.2-0.4,0.3
		c-0.1,0.1-0.1,0.3-0.1,0.5c0,0.2,0,0.3,0.1,0.5c0.1,0.1,0.2,0.2,0.4,0.3c0.2,0.1,0.4,0.1,0.6,0.1c0.3,0,0.6,0,0.9,0
		c0.3,0,0.6,0,0.9,0c0.3,0,0.5-0.1,0.6-0.1c0.2-0.1,0.3-0.2,0.4-0.3C140.7,32.2,140.7,32,140.7,31.8z M139.6,47.1h-1.7v-0.4h1.7
		V47.1z M139.6,44.1h-1.7v-0.4h1.7V44.1z M142.2,44.1h-1.7v-0.4h1.7V44.1z M157.3,58.5h-0.4v-1.7h0.4V58.5z M157.3,61.1h-0.4v-1.7
		h0.4V61.1z M157.3,63.7h-0.4V62h0.4V63.7z M157.3,66.3h-0.4v-1.7h0.4V66.3z M157.3,68.9h-0.4v-1.7h0.4V68.9z M160.3,57.6h-0.4v-1.7
		h0.4V57.6z M160.3,60.2h-0.4v-1.7h0.4V60.2z M160.3,62.8h-0.4v-1.7h0.4V62.8z M160.3,65.4h-0.4v-1.7h0.4V65.4z M160.3,68.1h-0.4
		v-1.7h0.4V68.1z M160.3,70.7h-0.4v-1.7h0.4V70.7z"/>
	<path class="st1" d="M119,45.4v-14h-13.8v14H119z"/>
	<path class="st0" d="M117.2,33.2v4.4h-4.3v-4.4H117.2z M117.2,39.3v4.4h-4.3v-4.4H117.2z M111.2,39.3v4.4h-4.3v-4.4H111.2z
		 M111.2,33.2v4.4h-4.3v-4.4H111.2z"/>
	<path class="st1" d="M156.9,17.5v-14h-13.8v14H156.9z"/>
	<path class="st0" d="M155.2,15.7V5.2h-10.3v10.5H155.2z M156,4.4v12.2h-12.1V4.4H156z M149.1,10.5c0-0.5,0.4-0.9,0.9-0.9
		c0.5,0,0.9,0.4,0.9,0.9c0,0.5-0.4,0.9-0.9,0.9C149.5,11.3,149.1,11,149.1,10.5z"/>
	<path class="st1" d="M156.9,31.4v-8.7H150v8.7H156.9z"/>
	<path d="M152.4,27.1c0,0.6,0.4,1,1,1s1-0.4,1-1c0-0.6-0.4-1-1-1S152.4,26.5,152.4,27.1z"/>
	<path d="M156,30.5v-7h-1v7H156z"/>
	<path class="st0" d="M152.6,23.6l-0.9,3.5l0.9,3.5h-0.9l-0.9-3.5l0.9-3.5H152.6z"/>
	<path d="M155.2,24.6v-1h-3.4v1H155.2z"/>
	<path d="M155.2,30.7v-1h-3.4v1H155.2z"/>
	<path class="st1" d="M119,12.2V3.5h-6.9v8.7H119z"/>
	<path d="M114.5,7.9c0,0.6,0.4,1,1,1c0.5,0,1-0.4,1-1s-0.4-1-1-1C115,6.9,114.5,7.3,114.5,7.9z"/>
	<path d="M118.1,11.3v-7h-1v7H118.1z"/>
	<path class="st0" d="M114.6,4.4l-0.9,3.5l0.9,3.5h-0.9l-0.9-3.5l0.9-3.5H114.6z"/>
	<path d="M117.2,5.4v-1h-3.4v1H117.2z"/>
	<path d="M117.2,11.5v-1h-3.4v1H117.2z"/>
	<path class="st1" d="M139.6,14.8V3.5h-6.9v11.3H139.6z"/>
	<path class="st0" d="M138.8,11.4c0,1.4-1.2,2.6-2.6,2.6c-1.4,0-2.6-1.2-2.6-2.6V6.1c0-1.4,1.2-2.6,2.6-2.6c1.4,0,2.6,1.2,2.6,2.6
		V11.4z M137.9,11.5V5.4c0-1-0.8-1.7-1.7-1.7c-1,0-1.7,0.8-1.7,1.7v6.1c0,1,0.8,1.7,1.7,1.7C137.1,13.2,137.9,12.5,137.9,11.5z"/>
	<path d="M135.2,11.3c0,0.6,0.4,1,1,1c0.5,0,1-0.4,1-1c0-0.6-0.4-1-1-1C135.6,10.3,135.2,10.8,135.2,11.3z"/>
	<path d="M139.6,7V3.5h-6.9V7H139.6z"/>
	<path d="M73.3,39v-4.2h0.9c0.3,0.4,0.5,0.7,0.8,1s0.5,0.5,0.7,0.7c0.3,0.3,0.5,0.5,0.8,0.6c0.2,0.1,0.4,0.2,0.7,0.2
		c0.3,0,0.5-0.1,0.6-0.2c0.1-0.2,0.2-0.4,0.2-0.7c0-0.1,0-0.3-0.1-0.4c0-0.1-0.1-0.3-0.1-0.4c-0.1-0.1-0.1-0.2-0.2-0.3l-0.1-0.2V35
		h1.2c0.1,0.2,0.2,0.4,0.2,0.8c0.1,0.3,0.1,0.7,0.1,1c0,0.7-0.1,1.2-0.4,1.5c-0.3,0.3-0.7,0.5-1.3,0.5c-0.3,0-0.7-0.1-1-0.2
		c-0.3-0.2-0.7-0.4-1-0.8c-0.2-0.2-0.4-0.5-0.6-0.7s-0.3-0.4-0.4-0.5V39H73.3z M74.6,44.1v-0.8h-1.3V42h1.3v-2.5h1.1l3.3,2.5v1.4
		h-3.3v0.8H74.6z M75.6,42h1.9l-1.9-1.4V42z M73.3,46.2v-1.4h1.5v1.4H73.3z M76.1,51.4c-0.5,0-0.9,0-1.3-0.1
		c-0.4-0.1-0.7-0.2-0.9-0.4c-0.2-0.2-0.4-0.4-0.6-0.7s-0.2-0.6-0.2-1c0-0.4,0.1-0.7,0.2-1s0.3-0.5,0.6-0.7c0.2-0.2,0.6-0.3,0.9-0.4
		c0.4-0.1,0.8-0.1,1.3-0.1c0.5,0,0.9,0,1.3,0.1c0.4,0.1,0.7,0.2,0.9,0.4c0.3,0.2,0.4,0.4,0.6,0.7c0.1,0.3,0.2,0.6,0.2,1
		c0,0.4-0.1,0.8-0.2,1c-0.1,0.3-0.3,0.5-0.6,0.7c-0.2,0.2-0.6,0.3-0.9,0.4C77,51.4,76.6,51.4,76.1,51.4z M76.1,50
		c0.7,0,1.2-0.1,1.5-0.2c0.3-0.1,0.4-0.3,0.4-0.6c0-0.3-0.1-0.5-0.4-0.6c-0.3-0.1-0.8-0.2-1.5-0.2c-0.7,0-1.2,0.1-1.5,0.2
		c-0.3,0.1-0.4,0.3-0.4,0.6c0,0.3,0.1,0.5,0.4,0.6C74.9,49.9,75.4,50,76.1,50z M76.1,56.4c-0.5,0-0.9,0-1.3-0.1
		c-0.4-0.1-0.7-0.2-0.9-0.4c-0.2-0.2-0.4-0.4-0.6-0.7c-0.1-0.3-0.2-0.6-0.2-1c0-0.4,0.1-0.7,0.2-1c0.1-0.3,0.3-0.5,0.6-0.7
		c0.2-0.2,0.6-0.3,0.9-0.4c0.4-0.1,0.8-0.1,1.3-0.1c0.5,0,0.9,0,1.3,0.1c0.4,0.1,0.7,0.2,0.9,0.4c0.3,0.2,0.4,0.4,0.6,0.7
		c0.1,0.3,0.2,0.6,0.2,1c0,0.4-0.1,0.8-0.2,1c-0.1,0.3-0.3,0.5-0.6,0.7c-0.2,0.2-0.6,0.3-0.9,0.4C77,56.4,76.6,56.4,76.1,56.4z
		 M76.1,55c0.7,0,1.2-0.1,1.5-0.2c0.3-0.1,0.4-0.3,0.4-0.6c0-0.3-0.1-0.5-0.4-0.6c-0.3-0.1-0.8-0.2-1.5-0.2c-0.7,0-1.2,0.1-1.5,0.2
		c-0.3,0.1-0.4,0.3-0.4,0.6c0,0.3,0.1,0.5,0.4,0.6C74.9,54.9,75.4,55,76.1,55z"/>
	<path class="st1" d="M81,53.2V32.3h-1.7v20.9H81z"/>
</g>
</svg>
